<?xml version="1.0" encoding="UTF-8"?><svg id="Layer_2" xmlns="http://www.w3.org/2000/svg" viewBox="0 0 419.89 419.89"><g id="svg1"><rect width="419.89" height="419.89" rx="36" ry="36" style="fill:#0f969c; stroke-width:0px;"/><path id="path94" d="m91.2,210.43l158.04,82.1-79.83,42.32L11.37,252.75l79.83-42.32Z" style="fill:#ebf4f1; fill-rule:evenodd; stroke-width:0px;"/><path id="path95" d="m11.37,252.75v40.46l158.04,82.1v-40.46L11.37,252.75h0Z" style="fill:#1e1e1e; fill-rule:evenodd; stroke-width:0px;"/><path id="path96" d="m170.25,127.78l158.04,82.1-79.05,42.19-158.04-82.1,79.05-42.19Z" style="fill:#ebf4f1; fill-rule:evenodd; stroke-width:0px;"/><path id="path97" d="m91.2,169.97v40.46l158.04,82.1v-40.46l-158.04-82.1Z" style="fill:#1e1e1e; fill-rule:evenodd; stroke-width:0px;"/><path id="path98" d="m249.27,44.57l159.25,82.74-80.24,42.11-158.04-82.1,79.02-42.74h0Z" style="fill:#ebf4f1; fill-rule:evenodd; stroke-width:0px;"/><path id="path99" d="m170.25,87.31v40.46l158.04,82.1v-40.46l-158.04-82.1Z" style="fill:#1e1e1e; fill-rule:evenodd; stroke-width:0px;"/><path id="path100" d="m328.28,209.88l-.41,42.19-78.64,40.46v-40.46l79.05-42.19" style="fill:#1e1e1e; fill-rule:evenodd; stroke-width:0px;"/><path id="path101" d="m249.24,292.53v42.32l-79.83,40.46v-40.46" style="fill:#1e1e1e; fill-rule:evenodd; stroke-width:0px;"/><path id="path102" d="m406.93,169.45l-78.64,40.43-.41-40.68,80.64-41.9" style="fill:#1e1e1e; fill-rule:evenodd; stroke-width:0px;"/></g></svg>