<?xml version="1.0" encoding="UTF-8"?><svg id="svg1" xmlns="http://www.w3.org/2000/svg" viewBox="0 0 1261.49 1346.41"><rect x="420.8" y="463.26" width="419.89" height="419.89" rx="36" ry="36" style="fill:#0f969c; stroke-width:0px;"/><path id="path94" d="m512,673.69l158.04,82.1-79.83,42.32-158.04-82.1,79.83-42.32Z" style="fill:#ebf4f1; fill-rule:evenodd; stroke-width:0px;"/><path id="path95" d="m432.17,716.01v40.46l158.04,82.1v-40.46l-158.04-82.1Z" style="fill:#1e1e1e; fill-rule:evenodd; stroke-width:0px;"/><path id="path96" d="m591.05,591.04l158.04,82.1-79.05,42.19-158.04-82.1,79.05-42.19Z" style="fill:#ebf4f1; fill-rule:evenodd; stroke-width:0px;"/><path id="path97" d="m512,633.23v40.46l158.04,82.1v-40.46l-158.04-82.1Z" style="fill:#1e1e1e; fill-rule:evenodd; stroke-width:0px;"/><path id="path98" d="m670.07,507.83l159.25,82.74-80.24,42.11-158.04-82.1,79.02-42.74Z" style="fill:#ebf4f1; fill-rule:evenodd; stroke-width:0px;"/><path id="path99" d="m591.05,550.57v40.46l158.04,82.1v-40.46l-158.04-82.1Z" style="fill:#1e1e1e; fill-rule:evenodd; stroke-width:0px;"/><path id="path100" d="m749.08,673.14l-.41,42.19-78.64,40.46v-40.46l79.05-42.19" style="fill:#1e1e1e; fill-rule:evenodd; stroke-width:0px;"/><path id="path101" d="m670.04,755.79v42.32l-79.83,40.46v-40.46" style="fill:#1e1e1e; fill-rule:evenodd; stroke-width:0px;"/><path id="path102" d="m827.73,632.71l-78.64,40.43-.41-40.68,80.64-41.9" style="fill:#1e1e1e; fill-rule:evenodd; stroke-width:0px;"/></svg>